/* XPM */
static char * eye[] = {
"30 30 72 1",
" 	c None",
".	c #000000",
"+	c #383838",
"@	c #C5C5C5",
"#	c #F4F4F4",
"$	c #FFFFFF",
"%	c #F6F6F6",
"&	c #C6C6C6",
"*	c #424242",
"=	c #3C3C3C",
"-	c #C4C4C4",
";	c #606060",
">	c #393939",
",	c #E8E8E8",
"'	c #F8F8F8",
")	c #B1B1B1",
"!	c #FAFAFA",
"~	c #F1F1F1",
"{	c #494949",
"]	c #4E4E4E",
"^	c #BFBFBF",
"/	c #868686",
"(	c #D7D7D7",
"_	c #B2B2B2",
":	c #646464",
"<	c #F9F9F9",
"[	c #D0D0D0",
"}	c #CECECE",
"|	c #898989",
"1	c #A1A1A1",
"2	c #FCFCFC",
"3	c #AAAAAA",
"4	c #F7F7F7",
"5	c #B8B8B8",
"6	c #FBFBFB",
"7	c #030303",
"8	c #A5A5A5",
"9	c #A9A9A9",
"0	c #535353",
"a	c #FEFEFE",
"b	c #A0A0A0",
"c	c #191919",
"d	c #9D9D9D",
"e	c #6B6B6B",
"f	c #7B7B7B",
"g	c #6C6C6C",
"h	c #ADADAD",
"i	c #A8A8A8",
"j	c #B9B9B9",
"k	c #0B0B0B",
"l	c #C7C7C7",
"m	c #A2A2A2",
"n	c #CCCCCC",
"o	c #D1D1D1",
"p	c #616161",
"q	c #515151",
"r	c #F2F2F2",
"s	c #D9D9D9",
"t	c #6A6A6A",
"u	c #D2D2D2",
"v	c #505050",
"w	c #AFAFAF",
"x	c #7C7C7C",
"y	c #3E3E3E",
"z	c #D5D5D5",
"A	c #6F6F6F",
"B	c #272727",
"C	c #D6D6D6",
"D	c #DFDFDF",
"E	c #666666",
"F	c #171717",
"G	c #474747",
"                              ",
"                              ",
"                              ",
"                              ",
"                              ",
"                              ",
"                              ",
"                              ",
"             .....            ",
"          ...........         ",
"        ....+@#$%&*....       ",
"      ..=-;>,$')@!~{]^{..     ",
"     ../~(.&$$$_.:<[.}#|..    ",
"    ..12$3.4!$$)..5678$$9..   ",
"    .0a$$b.$)^_c..d$ef$$$g.   ",
"    ..h$$i.6j....._$kb$$l..   ",
"     ..m!n.o%p...qrs.&69..    ",
"      ..tuv;~rwx3~4pyzA..     ",
"        ..B.pC$$$DE.F..       ",
"         .....*fG.....        ",
"            .......           ",
"                              ",
"                              ",
"                              ",
"                              ",
"                              ",
"                              ",
"                              ",
"                              ",
"                              "};
